# Blender 3.4.1
# www.blender.org
mtllib beam-structure.mtl
o Cube
v 0.500000 1.000000 -1.000000
v 0.500000 0.000000 -1.000000
v 0.500000 1.000000 1.000000
v 0.500000 0.000000 1.000000
v -0.500000 1.000000 -1.000000
v -0.500000 0.000000 -1.000000
v -0.500000 1.000000 1.000000
v -0.500000 0.000000 1.000000
vn -0.0000 -0.0000 1.0000
vn -1.0000 -0.0000 -0.0000
vn -0.0000 -0.0000 -1.0000
vn 1.0000 -0.0000 -0.0000
vn -0.0000 1.0000 -0.0000
vn -0.0000 -1.0000 -0.0000
vt 0.000000 0.000000
vt 0.000000 0.000000
vt 0.000000 0.000000
vt 0.000000 0.000000
vt 0.000000 0.000000
vt 0.000000 0.000000
vt 0.000000 0.000000
vt 0.000000 0.000000
s 0
usemtl Material
f 4/4/1 3/3/1 8/8/1
f 8/8/1 3/3/1 7/7/1
f 8/8/2 7/7/2 6/6/2
f 5/5/2 6/6/2 7/7/2
f 1/1/3 2/2/3 5/5/3
f 6/6/3 5/5/3 2/2/3
f 3/3/4 4/4/4 1/1/4
f 2/2/4 1/1/4 4/4/4
f 1/1/5 5/5/5 3/3/5
f 7/7/5 3/3/5 5/5/5
f 8/8/6 2/2/6 4/4/6
f 6/6/6 2/2/6 8/8/6
l 2 3
l 5 8
l 1 6
l 1 7
l 1 8
l 2 7
l 3 6
l 4 5
l 4 6
l 4 7
